<?xml version="1.0" encoding="UTF-8" standalone="no"?>
<svg
   version="1.0"
   width="650.000000pt"
   height="650.000000pt"
   viewBox="0 0 650.000000 650.000000"
   preserveAspectRatio="xMidYMid meet"
   id="svg24"
   sodipodi:docname="hy_white.svg"
   inkscape:version="1.1.1 (c3084ef, 2021-09-22)"
   xmlns:inkscape="http://www.inkscape.org/namespaces/inkscape"
   xmlns:sodipodi="http://sodipodi.sourceforge.net/DTD/sodipodi-0.dtd"
   xmlns="http://www.w3.org/2000/svg"
   xmlns:svg="http://www.w3.org/2000/svg">
  <defs
     id="defs28" />
  <sodipodi:namedview
     id="namedview26"
     pagecolor="#ffffff"
     bordercolor="#666666"
     borderopacity="1.0"
     inkscape:pageshadow="2"
     inkscape:pageopacity="0.0"
     inkscape:pagecheckerboard="0"
     inkscape:document-units="pt"
     showgrid="false"
     inkscape:zoom="0.88269231"
     inkscape:cx="360.82789"
     inkscape:cy="403.878"
     inkscape:window-width="1296"
     inkscape:window-height="945"
     inkscape:window-x="0"
     inkscape:window-y="25"
     inkscape:window-maximized="0"
     inkscape:current-layer="svg24" />
  <metadata
     id="metadata14">
Created by potrace 1.16, written by Peter Selinger 2001-2019
</metadata>
  <g
     transform="translate(0.000000,650.000000) scale(0.100000,-0.100000)"
     fill="#000000"
     stroke="none"
     id="g22">
    <path
       d="M2960 6025 l0 -315 295 0 295 0 0 315 0 315 -295 0 -295 0 0 -315z"
       id="path16" />
    <path
       d="M3250 5253 c0 -5 15 -19 33 -32 48 -37 126 -130 156 -186 21 -41 27 -66 29 -143 2 -51 1 -108 -2 -126 -10 -54 -63 -122 -123 -160 -153 -96 -333 -34 -593 204 -62 56 -193 147 -260 179 -193 94 -455 104 -614 24 -83 -41 -84 -45 -24 -60 144 -36 254 -131 327 -279 52 -108 131 -297 131 -317 0 -21 70 -124 125 -185 50 -55 172 -134 238 -154 20 -6 37 -14 37 -18 0 -29 -232 -50 -332 -30 -156 30 -264 104 -488 330 -192 195 -271 253 -405 303 -96 35 -262 48 -367 28 -101 -20 -222 -81 -161 -81 61 0 252 -88 311 -143 90 -84 94 -245 8 -298 -64 -39 -138 -11 -235 90 -197 205 -431 301 -663 271 -78 -9 -192 -53 -215 -82 -11 -12 -4 -16 46 -25 106 -20 197 -71 289 -160 45 -45 82 -85 82 -90 0 -5 24 -45 53 -90 29 -44 61 -100 71 -124 47 -112 83 -193 137 -305 132 -273 317 -388 598 -371 53 4 143 9 201 13 149 9 206 -8 280 -84 66 -69 88 -123 100 -254 5 -51 13 -107 18 -123 19 -65 67 -141 121 -195 67 -68 165 -112 286 -130 139 -21 140 -22 66 -59 -162 -83 -399 -81 -644 4 -111 39 -250 117 -279 157 -31 44 -46 36 -41 -20 13 -136 49 -285 88 -362 223 -444 614 -591 1182 -446 123 31 144 32 199 5 48 -23 85 -67 111 -130 45 -113 85 -161 173 -206 60 -31 77 -32 440 -22 114 2 160 0 215 -14 159 -40 284 -118 391 -246 33 -38 65 -70 72 -70 9 -1 12 23 12 88 0 142 -30 267 -99 412 -33 70 -165 237 -222 280 -19 15 -43 36 -54 46 -11 10 -47 37 -80 60 -85 58 -174 149 -198 202 -12 25 -23 69 -27 96 l-6 50 41 -40 c55 -55 122 -100 209 -140 71 -32 109 -42 331 -85 143 -28 252 -63 345 -110 86 -44 123 -72 199 -150 l54 -55 -6 118 c-5 100 -11 128 -34 180 -43 95 -130 204 -234 292 -112 95 -264 244 -256 251 2 3 29 -10 58 -29 89 -56 170 -80 291 -85 93 -4 123 0 241 27 288 66 402 28 523 -175 10 -17 15 -16 85 18 83 41 135 57 226 68 129 16 303 -22 450 -101 41 -22 78 -38 80 -35 21 20 -132 249 -224 337 -106 101 -242 187 -494 314 -263 132 -294 150 -362 214 -76 70 -151 235 -178 385 l-10 61 -73 -3 c-128 -7 -243 35 -327 119 -45 45 -110 175 -133 264 -22 88 -66 325 -66 357 0 42 -56 211 -108 323 -61 133 -116 210 -232 326 -185 184 -393 293 -627 328 -82 13 -263 15 -263 4z m280 -2018 l0 -305 -275 0 -275 0 0 305 0 305 275 0 275 0 0 -305z"
       id="path18" />
    <path
       d="M2960 445 l0 -315 295 0 295 0 0 315 0 315 -295 0 -295 0 0 -315z"
       id="path20" />
  </g>
  <path
     style="fill:#000000;fill-opacity:0;stroke-width:1.1329"
     d="M 579.84739,717.67263 C 564.96247,701.34098 550.47273,691.92177 532.05191,686.60268 522.19341,683.756 521.343,683.7037 484.90565,683.7037 h -37.10668 l -8.0454,-4.02495 c -10.07025,-5.03794 -14.37882,-9.98896 -21.69252,-24.92706 -6.2514,-12.76837 -10.30751,-17.17853 -18.77279,-20.41145 -5.98942,-2.28738 -3.02252,-2.66615 -36.19458,4.62081 -16.82686,3.69637 -46.40965,5.09688 -60.32033,2.85568 -17.27099,-2.7826 -35.26531,-10.10008 -47.43895,-19.29126 -17.23678,-13.01389 -33.97278,-35.87749 -40.66521,-55.55406 -4.70236,-13.82548 -9.13049,-40.46944 -7.06857,-42.53136 0.38582,-0.38582 2.53073,1.12776 4.76647,3.3635 16.60507,16.60506 62.77367,30.9308 91.71965,28.45985 14.83173,-1.2661 34.80667,-7.57752 37.43344,-11.82772 1.05577,-1.70826 -2.55954,-3.03263 -12.41343,-4.5473 -19.5933,-3.01174 -32.79284,-9.37761 -43.29683,-20.88119 -9.49533,-10.39895 -13.51928,-20.00505 -15.71934,-37.52571 -1.01712,-8.10022 -2.86596,-17.45189 -4.10848,-20.7815 -4.92666,-13.20188 -17.83519,-24.22389 -30.17843,-25.76796 -3.51555,-0.43977 -17.35269,-0.18012 -30.7492,0.57701 -26.35814,1.48967 -34.8174,0.89958 -46.92472,-3.27335 -9.55523,-3.29331 -16.04188,-7.36582 -24.25414,-15.22741 -11.66583,-11.1677 -20.05342,-25.75164 -35.89433,-62.41132 -6.990841,-16.17849 -20.232153,-37.48504 -28.737188,-46.24093 -10.162467,-10.4622 -21.909385,-18.16437 -33.090061,-21.69635 -4.994799,-1.57785 -9.789755,-2.86882 -10.655457,-2.86882 -3.230071,0 -2.830498,-2.30617 0.78522,-4.53196 2.055896,-1.26558 7.816424,-3.63999 12.801173,-5.27645 7.761148,-2.54794 11.016232,-2.97353 22.657952,-2.96246 11.452761,0.0109 15.201279,0.49328 23.79085,3.06157 18.694071,5.58954 33.822841,15.00109 52.095091,32.40813 11.79016,11.23189 17.58507,14.68868 24.61359,14.68255 10.65731,-0.009 16.13087,-6.9122 16.16625,-20.38792 0.0193,-7.34402 -0.43873,-9.3302 -3.37619,-14.64031 -1.86919,-3.37897 -5.43774,-7.63382 -7.93011,-9.45525 -6.52594,-4.76914 -22.6726,-12.68456 -30.58824,-14.99496 -3.73856,-1.09121 -7.56209,-2.23264 -8.49673,-2.53652 -2.68874,-0.87417 10.82126,-6.82005 20.2754,-8.92339 6.47297,-1.4401 11.61102,-1.72452 22.11738,-1.2243 16.29431,0.77578 27.10193,3.54309 39.17585,10.03102 11.44722,6.15119 19.23502,12.65692 45.7309,38.20247 25.69977,24.77799 36.92289,33.03613 51.69829,38.04041 8.95854,3.03417 10.77445,3.25318 26.05665,3.14273 16.4734,-0.11907 27.16267,-1.81154 28.02388,-4.43712 0.25213,-0.76866 -3.17994,-3.0222 -7.98115,-5.24049 -21.87949,-10.10895 -38.50431,-27.12814 -45.57592,-46.6571 -6.22141,-17.181 -17.19132,-41.19191 -22.35891,-48.93911 -8.94367,-13.40827 -20.25218,-21.95106 -35.1303,-26.53848 -8.98823,-2.77137 -8.83409,-3.64873 1.45201,-8.26486 19.45742,-8.73196 49.20611,-8.4388 72.96124,0.71901 10.39203,4.00622 31.68704,17.88074 43.16252,28.12206 37.1519,33.15628 63.69767,39.92137 83.83026,21.3638 8.21908,-7.57609 11.07441,-13.35712 11.62745,-23.54143 0.25772,-4.74597 -0.0393,-12.60666 -0.66012,-17.46818 -1.45519,-11.3959 -5.45501,-18.23602 -18.55289,-31.72739 l -9.85553,-10.15161 16.65292,0.60306 c 9.15909,0.33168 20.39365,1.42212 24.96568,2.42319 29.01776,6.35362 53.83861,20.51222 76.93544,43.88646 14.21919,14.38996 19.61745,21.81357 27.48165,37.79235 9.06932,18.42738 15.18528,36.8562 17.50031,52.73255 7.11417,48.78849 16.42262,71.50992 34.41627,84.00823 8.33477,5.78929 16.30034,8.02047 31.22801,8.74702 l 13.47794,0.65599 1.98217,9.62963 c 5.35665,26.02319 16.84942,46.03182 32.72522,56.97377 2.76011,1.90233 18.05761,10.1687 33.99443,18.3697 54.97963,28.29221 70.19287,39.67951 88.17699,66.00159 6.16485,9.02308 13.38807,21.7922 12.32736,21.7922 -0.23862,0 -5.21779,-2.26171 -11.06484,-5.026 -34.7383,-16.42319 -61.44517,-17.31529 -91.51526,-3.0569 l -7.24594,3.43582 -5.36115,-7.63401 c -9.1355,-13.00849 -16.65373,-18.25636 -29.48962,-20.58434 -8.90098,-1.61432 -16.66081,-0.89739 -39.02337,3.60534 -14.96779,3.01379 -18.54649,3.34989 -30.02179,2.81955 -15.25131,-0.70488 -22.04306,-2.51945 -34.96449,-9.34162 -15.55273,-8.21141 -15.39731,-7.05505 1.26079,9.38082 7.0098,6.91629 16.95549,16.24627 22.10152,20.7333 10.59465,9.23791 22.215,23.18329 27.35703,32.83072 4.47943,8.40426 6.54394,17.13229 7.3496,31.07137 l 0.64843,11.2188 -8.19452,-7.89365 c -17.85923,-17.20348 -34.86087,-25.04672 -70.75818,-32.64234 -10.45273,-2.21174 -22.5736,-4.84738 -26.93525,-5.85698 -15.76367,-3.64886 -29.92658,-11.08457 -43.25707,-22.7105 -4.55938,-3.97637 -8.28093,-6.57384 -8.27011,-5.77215 0.0498,3.69562 3.41739,16.93909 5.17097,20.33597 3.08414,5.97432 15.93336,18.67405 27.6634,27.34155 27.68508,20.45693 46.01228,44.79368 53.69342,71.2997 4.53468,15.64821 7.02839,41.53235 4.17139,43.29807 -0.57522,0.35551 -4.78111,-3.45191 -9.3464,-8.46094 z M 471.2854,435.03268 v -41.35076 h -37.38562 -37.38562 v 41.35076 41.35076 h 37.38562 37.38562 z"
     id="path67"
     transform="scale(0.75)" />
  <path
     style="fill:#ffffff;fill-opacity:0;stroke-width:1.1329"
     d="m 395.38126,807.75599 v -41.35076 h 38.51852 38.51852 v 41.35076 41.35076 h -38.51852 -38.51852 z"
     id="path106"
     transform="scale(0.75)" />
  <path
     style="fill:#ffffff;fill-opacity:0;stroke-width:1.1329"
     d="m 395.38126,807.75599 v -41.35076 h 38.51852 38.51852 v 41.35076 41.35076 h -38.51852 -38.51852 z"
     id="path182"
     transform="scale(0.75)" />
  <path
     style="fill:#ffffff;fill-opacity:0;stroke-width:1.1329"
     d="M 579.84739,717.67263 C 564.96247,701.34098 550.47273,691.92177 532.05191,686.60268 522.19341,683.756 521.343,683.7037 484.90565,683.7037 h -37.10668 l -8.0454,-4.02495 c -10.07025,-5.03794 -14.37882,-9.98896 -21.69252,-24.92706 -6.2514,-12.76837 -10.30751,-17.17853 -18.77279,-20.41145 -5.98942,-2.28738 -3.02252,-2.66615 -36.19458,4.62081 -16.82686,3.69637 -46.40965,5.09688 -60.32033,2.85568 -17.27099,-2.7826 -35.26531,-10.10008 -47.43895,-19.29126 -17.23678,-13.01389 -33.97278,-35.87749 -40.66521,-55.55406 -4.70236,-13.82548 -9.13049,-40.46944 -7.06857,-42.53136 0.38582,-0.38582 2.53073,1.12776 4.76647,3.3635 16.60507,16.60506 62.77367,30.9308 91.71965,28.45985 14.83173,-1.2661 34.80667,-7.57752 37.43344,-11.82772 1.05577,-1.70826 -2.55954,-3.03263 -12.41343,-4.5473 -19.5933,-3.01174 -32.79284,-9.37761 -43.29683,-20.88119 -9.49533,-10.39895 -13.51928,-20.00505 -15.71934,-37.52571 -1.01712,-8.10022 -2.86596,-17.45189 -4.10848,-20.7815 -4.92666,-13.20188 -17.83519,-24.22389 -30.17843,-25.76796 -3.51555,-0.43977 -17.35269,-0.18012 -30.7492,0.57701 -26.35814,1.48967 -34.8174,0.89958 -46.92472,-3.27335 -9.55523,-3.29331 -16.04188,-7.36582 -24.25414,-15.22741 -11.66583,-11.1677 -20.05342,-25.75164 -35.89433,-62.41132 -6.990841,-16.17849 -20.232153,-37.48504 -28.737188,-46.24093 -10.162467,-10.4622 -21.909385,-18.16437 -33.090061,-21.69635 -4.994799,-1.57785 -9.789755,-2.86882 -10.655457,-2.86882 -3.230071,0 -2.830498,-2.30617 0.78522,-4.53196 2.055896,-1.26558 7.816424,-3.63999 12.801173,-5.27645 7.761148,-2.54794 11.016232,-2.97353 22.657952,-2.96246 11.452761,0.0109 15.201279,0.49328 23.79085,3.06157 18.694071,5.58954 33.822841,15.00109 52.095091,32.40813 11.79016,11.23189 17.58507,14.68868 24.61359,14.68255 10.65731,-0.009 16.13087,-6.9122 16.16625,-20.38792 0.0193,-7.34402 -0.43873,-9.3302 -3.37619,-14.64031 -1.86919,-3.37897 -5.43774,-7.63382 -7.93011,-9.45525 -6.52594,-4.76914 -22.6726,-12.68456 -30.58824,-14.99496 -3.73856,-1.09121 -7.56209,-2.23264 -8.49673,-2.53652 -2.68874,-0.87417 10.82126,-6.82005 20.2754,-8.92339 6.47297,-1.4401 11.61102,-1.72452 22.11738,-1.2243 16.29431,0.77578 27.10193,3.54309 39.17585,10.03102 11.44722,6.15119 19.23502,12.65692 45.7309,38.20247 25.69977,24.77799 36.92289,33.03613 51.69829,38.04041 8.95854,3.03417 10.77445,3.25318 26.05665,3.14273 16.4734,-0.11907 27.16267,-1.81154 28.02388,-4.43712 0.25213,-0.76866 -3.17994,-3.0222 -7.98115,-5.24049 -21.87949,-10.10895 -38.50431,-27.12814 -45.57592,-46.6571 -6.22141,-17.181 -17.19132,-41.19191 -22.35891,-48.93911 -8.94367,-13.40827 -20.25218,-21.95106 -35.1303,-26.53848 -8.98823,-2.77137 -8.83409,-3.64873 1.45201,-8.26486 19.45742,-8.73196 49.20611,-8.4388 72.96124,0.71901 10.39203,4.00622 31.68704,17.88074 43.16252,28.12206 37.1519,33.15628 63.69767,39.92137 83.83026,21.3638 8.21908,-7.57609 11.07441,-13.35712 11.62745,-23.54143 0.25772,-4.74597 -0.0393,-12.60666 -0.66012,-17.46818 -1.45519,-11.3959 -5.45501,-18.23602 -18.55289,-31.72739 l -9.85553,-10.15161 16.65292,0.60306 c 9.15909,0.33168 20.39365,1.42212 24.96568,2.42319 29.01776,6.35362 53.83861,20.51222 76.93544,43.88646 14.21919,14.38996 19.61745,21.81357 27.48165,37.79235 9.06932,18.42738 15.18528,36.8562 17.50031,52.73255 7.11417,48.78849 16.42262,71.50992 34.41627,84.00823 8.33477,5.78929 16.30034,8.02047 31.22801,8.74702 l 13.47794,0.65599 1.98217,9.62963 c 5.35665,26.02319 16.84942,46.03182 32.72522,56.97377 2.76011,1.90233 18.05761,10.1687 33.99443,18.3697 54.97963,28.29221 70.19287,39.67951 88.17699,66.00159 6.16485,9.02308 13.38807,21.7922 12.32736,21.7922 -0.23862,0 -5.21779,-2.26171 -11.06484,-5.026 -34.7383,-16.42319 -61.44517,-17.31529 -91.51526,-3.0569 l -7.24594,3.43582 -5.36115,-7.63401 c -9.1355,-13.00849 -16.65373,-18.25636 -29.48962,-20.58434 -8.90098,-1.61432 -16.66081,-0.89739 -39.02337,3.60534 -14.96779,3.01379 -18.54649,3.34989 -30.02179,2.81955 -15.25131,-0.70488 -22.04306,-2.51945 -34.96449,-9.34162 -15.55273,-8.21141 -15.39731,-7.05505 1.26079,9.38082 7.0098,6.91629 16.95549,16.24627 22.10152,20.7333 10.59465,9.23791 22.215,23.18329 27.35703,32.83072 4.47943,8.40426 6.54394,17.13229 7.3496,31.07137 l 0.64843,11.2188 -8.19452,-7.89365 c -17.85923,-17.20348 -34.86087,-25.04672 -70.75818,-32.64234 -10.45273,-2.21174 -22.5736,-4.84738 -26.93525,-5.85698 -15.76367,-3.64886 -29.92658,-11.08457 -43.25707,-22.7105 -4.55938,-3.97637 -8.28093,-6.57384 -8.27011,-5.77215 0.0498,3.69562 3.41739,16.93909 5.17097,20.33597 3.08414,5.97432 15.93336,18.67405 27.6634,27.34155 27.68508,20.45693 46.01228,44.79368 53.69342,71.2997 4.53468,15.64821 7.02839,41.53235 4.17139,43.29807 -0.57522,0.35551 -4.78111,-3.45191 -9.3464,-8.46094 z M 471.2854,435.03268 v -41.35076 h -37.38562 -37.38562 v 41.35076 41.35076 h 37.38562 37.38562 z"
     id="path334"
     transform="scale(0.75)" />
  <path
     style="fill:#ffffff;fill-opacity:0;stroke-width:1.1329"
     d="m 397.64706,435.03268 v -40.21787 h 36.25272 36.25273 v 40.21787 40.21786 h -36.25273 -36.25272 z"
     id="path373"
     transform="scale(0.75)" />
  <path
     style="fill:#ffffff;fill-opacity:0;stroke-width:1.1329"
     d="M 579.84739,717.67263 C 564.96247,701.34098 550.47273,691.92177 532.05191,686.60268 522.19341,683.756 521.343,683.7037 484.90565,683.7037 h -37.10668 l -8.0454,-4.02495 c -10.07025,-5.03794 -14.37882,-9.98896 -21.69252,-24.92706 -6.2514,-12.76837 -10.30751,-17.17853 -18.77279,-20.41145 -5.98942,-2.28738 -3.02252,-2.66615 -36.19458,4.62081 -16.82686,3.69637 -46.40965,5.09688 -60.32033,2.85568 -17.27099,-2.7826 -35.26531,-10.10008 -47.43895,-19.29126 -17.23678,-13.01389 -33.97278,-35.87749 -40.66521,-55.55406 -4.70236,-13.82548 -9.13049,-40.46944 -7.06857,-42.53136 0.38582,-0.38582 2.53073,1.12776 4.76647,3.3635 16.60507,16.60506 62.77367,30.9308 91.71965,28.45985 14.83173,-1.2661 34.80667,-7.57752 37.43344,-11.82772 1.05577,-1.70826 -2.55954,-3.03263 -12.41343,-4.5473 -19.5933,-3.01174 -32.79284,-9.37761 -43.29683,-20.88119 -9.49533,-10.39895 -13.51928,-20.00505 -15.71934,-37.52571 -1.01712,-8.10022 -2.86596,-17.45189 -4.10848,-20.7815 -4.92666,-13.20188 -17.83519,-24.22389 -30.17843,-25.76796 -3.51555,-0.43977 -17.35269,-0.18012 -30.7492,0.57701 -26.35814,1.48967 -34.8174,0.89958 -46.92472,-3.27335 -9.55523,-3.29331 -16.04188,-7.36582 -24.25414,-15.22741 -11.66583,-11.1677 -20.05342,-25.75164 -35.89433,-62.41132 -6.990841,-16.17849 -20.232153,-37.48504 -28.737188,-46.24093 -10.162467,-10.4622 -21.909385,-18.16437 -33.090061,-21.69635 -4.994799,-1.57785 -9.789755,-2.86882 -10.655457,-2.86882 -3.230071,0 -2.830498,-2.30617 0.78522,-4.53196 2.055896,-1.26558 7.816424,-3.63999 12.801173,-5.27645 7.761148,-2.54794 11.016232,-2.97353 22.657952,-2.96246 11.452761,0.0109 15.201279,0.49328 23.79085,3.06157 18.694071,5.58954 33.822841,15.00109 52.095091,32.40813 11.79016,11.23189 17.58507,14.68868 24.61359,14.68255 10.65731,-0.009 16.13087,-6.9122 16.16625,-20.38792 0.0193,-7.34402 -0.43873,-9.3302 -3.37619,-14.64031 -1.86919,-3.37897 -5.43774,-7.63382 -7.93011,-9.45525 -6.52594,-4.76914 -22.6726,-12.68456 -30.58824,-14.99496 -3.73856,-1.09121 -7.56209,-2.23264 -8.49673,-2.53652 -2.68874,-0.87417 10.82126,-6.82005 20.2754,-8.92339 6.47297,-1.4401 11.61102,-1.72452 22.11738,-1.2243 16.29431,0.77578 27.10193,3.54309 39.17585,10.03102 11.44722,6.15119 19.23502,12.65692 45.7309,38.20247 25.69977,24.77799 36.92289,33.03613 51.69829,38.04041 8.95854,3.03417 10.77445,3.25318 26.05665,3.14273 16.4734,-0.11907 27.16267,-1.81154 28.02388,-4.43712 0.25213,-0.76866 -3.17994,-3.0222 -7.98115,-5.24049 -21.87949,-10.10895 -38.50431,-27.12814 -45.57592,-46.6571 -6.22141,-17.181 -17.19132,-41.19191 -22.35891,-48.93911 -8.94367,-13.40827 -20.25218,-21.95106 -35.1303,-26.53848 -8.98823,-2.77137 -8.83409,-3.64873 1.45201,-8.26486 19.45742,-8.73196 49.20611,-8.4388 72.96124,0.71901 10.39203,4.00622 31.68704,17.88074 43.16252,28.12206 37.1519,33.15628 63.69767,39.92137 83.83026,21.3638 8.21908,-7.57609 11.07441,-13.35712 11.62745,-23.54143 0.25772,-4.74597 -0.0393,-12.60666 -0.66012,-17.46818 -1.45519,-11.3959 -5.45501,-18.23602 -18.55289,-31.72739 l -9.85553,-10.15161 16.65292,0.60306 c 9.15909,0.33168 20.39365,1.42212 24.96568,2.42319 29.01776,6.35362 53.83861,20.51222 76.93544,43.88646 14.21919,14.38996 19.61745,21.81357 27.48165,37.79235 9.06932,18.42738 15.18528,36.8562 17.50031,52.73255 7.11417,48.78849 16.42262,71.50992 34.41627,84.00823 8.33477,5.78929 16.30034,8.02047 31.22801,8.74702 l 13.47794,0.65599 1.98217,9.62963 c 5.35665,26.02319 16.84942,46.03182 32.72522,56.97377 2.76011,1.90233 18.05761,10.1687 33.99443,18.3697 54.97963,28.29221 70.19287,39.67951 88.17699,66.00159 6.16485,9.02308 13.38807,21.7922 12.32736,21.7922 -0.23862,0 -5.21779,-2.26171 -11.06484,-5.026 -34.7383,-16.42319 -61.44517,-17.31529 -91.51526,-3.0569 l -7.24594,3.43582 -5.36115,-7.63401 c -9.1355,-13.00849 -16.65373,-18.25636 -29.48962,-20.58434 -8.90098,-1.61432 -16.66081,-0.89739 -39.02337,3.60534 -14.96779,3.01379 -18.54649,3.34989 -30.02179,2.81955 -15.25131,-0.70488 -22.04306,-2.51945 -34.96449,-9.34162 -15.55273,-8.21141 -15.39731,-7.05505 1.26079,9.38082 7.0098,6.91629 16.95549,16.24627 22.10152,20.7333 10.59465,9.23791 22.215,23.18329 27.35703,32.83072 4.47943,8.40426 6.54394,17.13229 7.3496,31.07137 l 0.64843,11.2188 -8.19452,-7.89365 c -17.85923,-17.20348 -34.86087,-25.04672 -70.75818,-32.64234 -10.45273,-2.21174 -22.5736,-4.84738 -26.93525,-5.85698 -15.76367,-3.64886 -29.92658,-11.08457 -43.25707,-22.7105 -4.55938,-3.97637 -8.28093,-6.57384 -8.27011,-5.77215 0.0498,3.69562 3.41739,16.93909 5.17097,20.33597 3.08414,5.97432 15.93336,18.67405 27.6634,27.34155 27.68508,20.45693 46.01228,44.79368 53.69342,71.2997 4.53468,15.64821 7.02839,41.53235 4.17139,43.29807 -0.57522,0.35551 -4.78111,-3.45191 -9.3464,-8.46094 z M 471.2854,435.03268 v -41.35076 h -37.38562 -37.38562 v 41.35076 41.35076 h 37.38562 37.38562 z"
     id="path412"
     transform="scale(0.75)" />
  <path
     style="fill:#ffffff;fill-opacity:0;stroke-width:1.1329"
     d="M 579.84739,717.67263 C 564.96247,701.34098 550.47273,691.92177 532.05191,686.60268 522.19341,683.756 521.343,683.7037 484.90565,683.7037 h -37.10668 l -8.0454,-4.02495 c -10.07025,-5.03794 -14.37882,-9.98896 -21.69252,-24.92706 -6.2514,-12.76837 -10.30751,-17.17853 -18.77279,-20.41145 -5.98942,-2.28738 -3.02252,-2.66615 -36.19458,4.62081 -16.82686,3.69637 -46.40965,5.09688 -60.32033,2.85568 -17.27099,-2.7826 -35.26531,-10.10008 -47.43895,-19.29126 -17.23678,-13.01389 -33.97278,-35.87749 -40.66521,-55.55406 -4.70236,-13.82548 -9.13049,-40.46944 -7.06857,-42.53136 0.38582,-0.38582 2.53073,1.12776 4.76647,3.3635 16.60507,16.60506 62.77367,30.9308 91.71965,28.45985 14.83173,-1.2661 34.80667,-7.57752 37.43344,-11.82772 1.05577,-1.70826 -2.55954,-3.03263 -12.41343,-4.5473 -19.5933,-3.01174 -32.79284,-9.37761 -43.29683,-20.88119 -9.49533,-10.39895 -13.51928,-20.00505 -15.71934,-37.52571 -1.01712,-8.10022 -2.86596,-17.45189 -4.10848,-20.7815 -4.92666,-13.20188 -17.83519,-24.22389 -30.17843,-25.76796 -3.51555,-0.43977 -17.35269,-0.18012 -30.7492,0.57701 -26.35814,1.48967 -34.8174,0.89958 -46.92472,-3.27335 -9.55523,-3.29331 -16.04188,-7.36582 -24.25414,-15.22741 -11.66583,-11.1677 -20.05342,-25.75164 -35.89433,-62.41132 -6.990841,-16.17849 -20.232153,-37.48504 -28.737188,-46.24093 -10.162467,-10.4622 -21.909385,-18.16437 -33.090061,-21.69635 -4.994799,-1.57785 -9.789755,-2.86882 -10.655457,-2.86882 -3.230071,0 -2.830498,-2.30617 0.78522,-4.53196 2.055896,-1.26558 7.816424,-3.63999 12.801173,-5.27645 7.761148,-2.54794 11.016232,-2.97353 22.657952,-2.96246 11.452761,0.0109 15.201279,0.49328 23.79085,3.06157 18.694071,5.58954 33.822841,15.00109 52.095091,32.40813 11.79016,11.23189 17.58507,14.68868 24.61359,14.68255 10.65731,-0.009 16.13087,-6.9122 16.16625,-20.38792 0.0193,-7.34402 -0.43873,-9.3302 -3.37619,-14.64031 -1.86919,-3.37897 -5.43774,-7.63382 -7.93011,-9.45525 -6.52594,-4.76914 -22.6726,-12.68456 -30.58824,-14.99496 -3.73856,-1.09121 -7.56209,-2.23264 -8.49673,-2.53652 -2.68874,-0.87417 10.82126,-6.82005 20.2754,-8.92339 6.47297,-1.4401 11.61102,-1.72452 22.11738,-1.2243 16.29431,0.77578 27.10193,3.54309 39.17585,10.03102 11.44722,6.15119 19.23502,12.65692 45.7309,38.20247 25.69977,24.77799 36.92289,33.03613 51.69829,38.04041 8.95854,3.03417 10.77445,3.25318 26.05665,3.14273 16.4734,-0.11907 27.16267,-1.81154 28.02388,-4.43712 0.25213,-0.76866 -3.17994,-3.0222 -7.98115,-5.24049 -21.87949,-10.10895 -38.50431,-27.12814 -45.57592,-46.6571 -6.22141,-17.181 -17.19132,-41.19191 -22.35891,-48.93911 -8.94367,-13.40827 -20.25218,-21.95106 -35.1303,-26.53848 -8.98823,-2.77137 -8.83409,-3.64873 1.45201,-8.26486 19.45742,-8.73196 49.20611,-8.4388 72.96124,0.71901 10.39203,4.00622 31.68704,17.88074 43.16252,28.12206 37.1519,33.15628 63.69767,39.92137 83.83026,21.3638 8.21908,-7.57609 11.07441,-13.35712 11.62745,-23.54143 0.25772,-4.74597 -0.0393,-12.60666 -0.66012,-17.46818 -1.45519,-11.3959 -5.45501,-18.23602 -18.55289,-31.72739 l -9.85553,-10.15161 16.65292,0.60306 c 9.15909,0.33168 20.39365,1.42212 24.96568,2.42319 29.01776,6.35362 53.83861,20.51222 76.93544,43.88646 14.21919,14.38996 19.61745,21.81357 27.48165,37.79235 9.06932,18.42738 15.18528,36.8562 17.50031,52.73255 7.11417,48.78849 16.42262,71.50992 34.41627,84.00823 8.33477,5.78929 16.30034,8.02047 31.22801,8.74702 l 13.47794,0.65599 1.98217,9.62963 c 5.35665,26.02319 16.84942,46.03182 32.72522,56.97377 2.76011,1.90233 18.05761,10.1687 33.99443,18.3697 54.97963,28.29221 70.19287,39.67951 88.17699,66.00159 6.16485,9.02308 13.38807,21.7922 12.32736,21.7922 -0.23862,0 -5.21779,-2.26171 -11.06484,-5.026 -34.7383,-16.42319 -61.44517,-17.31529 -91.51526,-3.0569 l -7.24594,3.43582 -5.36115,-7.63401 c -9.1355,-13.00849 -16.65373,-18.25636 -29.48962,-20.58434 -8.90098,-1.61432 -16.66081,-0.89739 -39.02337,3.60534 -14.96779,3.01379 -18.54649,3.34989 -30.02179,2.81955 -15.25131,-0.70488 -22.04306,-2.51945 -34.96449,-9.34162 -15.55273,-8.21141 -15.39731,-7.05505 1.26079,9.38082 7.0098,6.91629 16.95549,16.24627 22.10152,20.7333 10.59465,9.23791 22.215,23.18329 27.35703,32.83072 4.47943,8.40426 6.54394,17.13229 7.3496,31.07137 l 0.64843,11.2188 -8.19452,-7.89365 c -17.85923,-17.20348 -34.86087,-25.04672 -70.75818,-32.64234 -10.45273,-2.21174 -22.5736,-4.84738 -26.93525,-5.85698 -15.76367,-3.64886 -29.92658,-11.08457 -43.25707,-22.7105 -4.55938,-3.97637 -8.28093,-6.57384 -8.27011,-5.77215 0.0498,3.69562 3.41739,16.93909 5.17097,20.33597 3.08414,5.97432 15.93336,18.67405 27.6634,27.34155 27.68508,20.45693 46.01228,44.79368 53.69342,71.2997 4.53468,15.64821 7.02839,41.53235 4.17139,43.29807 -0.57522,0.35551 -4.78111,-3.45191 -9.3464,-8.46094 z M 471.2854,435.03268 v -41.35076 h -37.38562 -37.38562 v 41.35076 41.35076 h 37.38562 37.38562 z"
     id="path451"
     transform="scale(0.75)" />
  <path
     style="fill:#000000;fill-opacity:0;stroke-width:1.1329"
     d="M 579.84739,717.67263 C 564.96247,701.34098 550.47273,691.92177 532.05191,686.60268 522.19341,683.756 521.343,683.7037 484.90565,683.7037 h -37.10668 l -8.0454,-4.02495 c -10.07025,-5.03794 -14.37882,-9.98896 -21.69252,-24.92706 -6.2514,-12.76837 -10.30751,-17.17853 -18.77279,-20.41145 -5.98942,-2.28738 -3.02252,-2.66615 -36.19458,4.62081 -16.82686,3.69637 -46.40965,5.09688 -60.32033,2.85568 -17.27099,-2.7826 -35.26531,-10.10008 -47.43895,-19.29126 -17.23678,-13.01389 -33.97278,-35.87749 -40.66521,-55.55406 -4.70236,-13.82548 -9.13049,-40.46944 -7.06857,-42.53136 0.38582,-0.38582 2.53073,1.12776 4.76647,3.3635 16.60507,16.60506 62.77367,30.9308 91.71965,28.45985 14.83173,-1.2661 34.80667,-7.57752 37.43344,-11.82772 1.05577,-1.70826 -2.55954,-3.03263 -12.41343,-4.5473 -19.5933,-3.01174 -32.79284,-9.37761 -43.29683,-20.88119 -9.49533,-10.39895 -13.51928,-20.00505 -15.71934,-37.52571 -1.01712,-8.10022 -2.86596,-17.45189 -4.10848,-20.7815 -4.92666,-13.20188 -17.83519,-24.22389 -30.17843,-25.76796 -3.51555,-0.43977 -17.35269,-0.18012 -30.7492,0.57701 -26.35814,1.48967 -34.8174,0.89958 -46.92472,-3.27335 -9.55523,-3.29331 -16.04188,-7.36582 -24.25414,-15.22741 -11.66583,-11.1677 -20.05342,-25.75164 -35.89433,-62.41132 -6.990841,-16.17849 -20.232153,-37.48504 -28.737188,-46.24093 -10.162467,-10.4622 -21.909385,-18.16437 -33.090061,-21.69635 -4.994799,-1.57785 -9.789755,-2.86882 -10.655457,-2.86882 -3.230071,0 -2.830498,-2.30617 0.78522,-4.53196 2.055896,-1.26558 7.816424,-3.63999 12.801173,-5.27645 7.761148,-2.54794 11.016232,-2.97353 22.657952,-2.96246 11.452761,0.0109 15.201279,0.49328 23.79085,3.06157 18.694071,5.58954 33.822841,15.00109 52.095091,32.40813 11.79016,11.23189 17.58507,14.68868 24.61359,14.68255 10.65731,-0.009 16.13087,-6.9122 16.16625,-20.38792 0.0193,-7.34402 -0.43873,-9.3302 -3.37619,-14.64031 -1.86919,-3.37897 -5.43774,-7.63382 -7.93011,-9.45525 -6.52594,-4.76914 -22.6726,-12.68456 -30.58824,-14.99496 -3.73856,-1.09121 -7.56209,-2.23264 -8.49673,-2.53652 -2.68874,-0.87417 10.82126,-6.82005 20.2754,-8.92339 6.47297,-1.4401 11.61102,-1.72452 22.11738,-1.2243 16.29431,0.77578 27.10193,3.54309 39.17585,10.03102 11.44722,6.15119 19.23502,12.65692 45.7309,38.20247 25.69977,24.77799 36.92289,33.03613 51.69829,38.04041 8.95854,3.03417 10.77445,3.25318 26.05665,3.14273 16.4734,-0.11907 27.16267,-1.81154 28.02388,-4.43712 0.25213,-0.76866 -3.17994,-3.0222 -7.98115,-5.24049 -21.87949,-10.10895 -38.50431,-27.12814 -45.57592,-46.6571 -6.22141,-17.181 -17.19132,-41.19191 -22.35891,-48.93911 -8.94367,-13.40827 -20.25218,-21.95106 -35.1303,-26.53848 -8.98823,-2.77137 -8.83409,-3.64873 1.45201,-8.26486 19.45742,-8.73196 49.20611,-8.4388 72.96124,0.71901 10.39203,4.00622 31.68704,17.88074 43.16252,28.12206 37.1519,33.15628 63.69767,39.92137 83.83026,21.3638 8.21908,-7.57609 11.07441,-13.35712 11.62745,-23.54143 0.25772,-4.74597 -0.0393,-12.60666 -0.66012,-17.46818 -1.45519,-11.3959 -5.45501,-18.23602 -18.55289,-31.72739 l -9.85553,-10.15161 16.65292,0.60306 c 9.15909,0.33168 20.39365,1.42212 24.96568,2.42319 29.01776,6.35362 53.83861,20.51222 76.93544,43.88646 14.21919,14.38996 19.61745,21.81357 27.48165,37.79235 9.06932,18.42738 15.18528,36.8562 17.50031,52.73255 7.11417,48.78849 16.42262,71.50992 34.41627,84.00823 8.33477,5.78929 16.30034,8.02047 31.22801,8.74702 l 13.47794,0.65599 1.98217,9.62963 c 5.35665,26.02319 16.84942,46.03182 32.72522,56.97377 2.76011,1.90233 18.05761,10.1687 33.99443,18.3697 54.97963,28.29221 70.19287,39.67951 88.17699,66.00159 6.16485,9.02308 13.38807,21.7922 12.32736,21.7922 -0.23862,0 -5.21779,-2.26171 -11.06484,-5.026 -34.7383,-16.42319 -61.44517,-17.31529 -91.51526,-3.0569 l -7.24594,3.43582 -5.36115,-7.63401 c -9.1355,-13.00849 -16.65373,-18.25636 -29.48962,-20.58434 -8.90098,-1.61432 -16.66081,-0.89739 -39.02337,3.60534 -14.96779,3.01379 -18.54649,3.34989 -30.02179,2.81955 -15.25131,-0.70488 -22.04306,-2.51945 -34.96449,-9.34162 -15.55273,-8.21141 -15.39731,-7.05505 1.26079,9.38082 7.0098,6.91629 16.95549,16.24627 22.10152,20.7333 10.59465,9.23791 22.215,23.18329 27.35703,32.83072 4.47943,8.40426 6.54394,17.13229 7.3496,31.07137 l 0.64843,11.2188 -8.19452,-7.89365 c -17.85923,-17.20348 -34.86087,-25.04672 -70.75818,-32.64234 -10.45273,-2.21174 -22.5736,-4.84738 -26.93525,-5.85698 -15.76367,-3.64886 -29.92658,-11.08457 -43.25707,-22.7105 -4.55938,-3.97637 -8.28093,-6.57384 -8.27011,-5.77215 0.0498,3.69562 3.41739,16.93909 5.17097,20.33597 3.08414,5.97432 15.93336,18.67405 27.6634,27.34155 27.68508,20.45693 46.01228,44.79368 53.69342,71.2997 4.53468,15.64821 7.02839,41.53235 4.17139,43.29807 -0.57522,0.35551 -4.78111,-3.45191 -9.3464,-8.46094 z M 471.2854,435.03268 v -41.35076 h -37.38562 -37.38562 v 41.35076 41.35076 h 37.38562 37.38562 z"
     id="path490"
     transform="scale(0.75)" />
  <path
     style="fill:#000000;fill-opacity:1;stroke-width:1.1329"
     d="M 579.84739,717.67263 C 564.96247,701.34098 550.47273,691.92177 532.05191,686.60268 522.19341,683.756 521.343,683.7037 484.90565,683.7037 h -37.10668 l -8.0454,-4.02495 c -10.07025,-5.03794 -14.37882,-9.98896 -21.69252,-24.92706 -6.2514,-12.76837 -10.30751,-17.17853 -18.77279,-20.41145 -5.98942,-2.28738 -3.02252,-2.66615 -36.19458,4.62081 -16.82686,3.69637 -46.40965,5.09688 -60.32033,2.85568 -17.27099,-2.7826 -35.26531,-10.10008 -47.43895,-19.29126 -17.23678,-13.01389 -33.97278,-35.87749 -40.66521,-55.55406 -4.70236,-13.82548 -9.13049,-40.46944 -7.06857,-42.53136 0.38582,-0.38582 2.53073,1.12776 4.76647,3.3635 16.60507,16.60506 62.77367,30.9308 91.71965,28.45985 14.83173,-1.2661 34.80667,-7.57752 37.43344,-11.82772 1.05577,-1.70826 -2.55954,-3.03263 -12.41343,-4.5473 -19.5933,-3.01174 -32.79284,-9.37761 -43.29683,-20.88119 -9.49533,-10.39895 -13.51928,-20.00505 -15.71934,-37.52571 -1.01712,-8.10022 -2.86596,-17.45189 -4.10848,-20.7815 -4.92666,-13.20188 -17.83519,-24.22389 -30.17843,-25.76796 -3.51555,-0.43977 -17.35269,-0.18012 -30.7492,0.57701 -26.35814,1.48967 -34.8174,0.89958 -46.92472,-3.27335 -9.55523,-3.29331 -16.04188,-7.36582 -24.25414,-15.22741 -11.66583,-11.1677 -20.05342,-25.75164 -35.89433,-62.41132 -6.990841,-16.17849 -20.232153,-37.48504 -28.737188,-46.24093 -10.162467,-10.4622 -21.909385,-18.16437 -33.090061,-21.69635 -4.994799,-1.57785 -9.789755,-2.86882 -10.655457,-2.86882 -3.230071,0 -2.830498,-2.30617 0.78522,-4.53196 2.055896,-1.26558 7.816424,-3.63999 12.801173,-5.27645 7.761148,-2.54794 11.016232,-2.97353 22.657952,-2.96246 11.452761,0.0109 15.201279,0.49328 23.79085,3.06157 18.694071,5.58954 33.822841,15.00109 52.095091,32.40813 11.79016,11.23189 17.58507,14.68868 24.61359,14.68255 10.65731,-0.009 16.13087,-6.9122 16.16625,-20.38792 0.0193,-7.34402 -0.43873,-9.3302 -3.37619,-14.64031 -1.86919,-3.37897 -5.43774,-7.63382 -7.93011,-9.45525 -6.52594,-4.76914 -22.6726,-12.68456 -30.58824,-14.99496 -3.73856,-1.09121 -7.56209,-2.23264 -8.49673,-2.53652 -2.68874,-0.87417 10.82126,-6.82005 20.2754,-8.92339 6.47297,-1.4401 11.61102,-1.72452 22.11738,-1.2243 16.29431,0.77578 27.10193,3.54309 39.17585,10.03102 11.44722,6.15119 19.23502,12.65692 45.7309,38.20247 25.69977,24.77799 36.92289,33.03613 51.69829,38.04041 8.95854,3.03417 10.77445,3.25318 26.05665,3.14273 16.4734,-0.11907 27.16267,-1.81154 28.02388,-4.43712 0.25213,-0.76866 -3.17994,-3.0222 -7.98115,-5.24049 -21.87949,-10.10895 -38.50431,-27.12814 -45.57592,-46.6571 -6.22141,-17.181 -17.19132,-41.19191 -22.35891,-48.93911 -8.94367,-13.40827 -20.25218,-21.95106 -35.1303,-26.53848 -8.98823,-2.77137 -8.83409,-3.64873 1.45201,-8.26486 19.45742,-8.73196 49.20611,-8.4388 72.96124,0.71901 10.39203,4.00622 31.68704,17.88074 43.16252,28.12206 37.1519,33.15628 63.69767,39.92137 83.83026,21.3638 8.21908,-7.57609 11.07441,-13.35712 11.62745,-23.54143 0.25772,-4.74597 -0.0393,-12.60666 -0.66012,-17.46818 -1.45519,-11.3959 -5.45501,-18.23602 -18.55289,-31.72739 l -9.85553,-10.15161 16.65292,0.60306 c 9.15909,0.33168 20.39365,1.42212 24.96568,2.42319 29.01776,6.35362 53.83861,20.51222 76.93544,43.88646 14.21919,14.38996 19.61745,21.81357 27.48165,37.79235 9.06932,18.42738 15.18528,36.8562 17.50031,52.73255 7.11417,48.78849 16.42262,71.50992 34.41627,84.00823 8.33477,5.78929 16.30034,8.02047 31.22801,8.74702 l 13.47794,0.65599 1.98217,9.62963 c 5.35665,26.02319 16.84942,46.03182 32.72522,56.97377 2.76011,1.90233 18.05761,10.1687 33.99443,18.3697 54.97963,28.29221 70.19287,39.67951 88.17699,66.00159 6.16485,9.02308 13.38807,21.7922 12.32736,21.7922 -0.23862,0 -5.21779,-2.26171 -11.06484,-5.026 -34.7383,-16.42319 -61.44517,-17.31529 -91.51526,-3.0569 l -7.24594,3.43582 -5.36115,-7.63401 c -9.1355,-13.00849 -16.65373,-18.25636 -29.48962,-20.58434 -8.90098,-1.61432 -16.66081,-0.89739 -39.02337,3.60534 -14.96779,3.01379 -18.54649,3.34989 -30.02179,2.81955 -15.25131,-0.70488 -22.04306,-2.51945 -34.96449,-9.34162 -15.55273,-8.21141 -15.39731,-7.05505 1.26079,9.38082 7.0098,6.91629 16.95549,16.24627 22.10152,20.7333 10.59465,9.23791 22.215,23.18329 27.35703,32.83072 4.47943,8.40426 6.54394,17.13229 7.3496,31.07137 l 0.64843,11.2188 -8.19452,-7.89365 c -17.85923,-17.20348 -34.86087,-25.04672 -70.75818,-32.64234 -10.45273,-2.21174 -22.5736,-4.84738 -26.93525,-5.85698 -15.76367,-3.64886 -29.92658,-11.08457 -43.25707,-22.7105 -4.55938,-3.97637 -8.28093,-6.57384 -8.27011,-5.77215 0.0498,3.69562 3.41739,16.93909 5.17097,20.33597 3.08414,5.97432 15.93336,18.67405 27.6634,27.34155 27.68508,20.45693 46.01228,44.79368 53.69342,71.2997 4.53468,15.64821 7.02839,41.53235 4.17139,43.29807 -0.57522,0.35551 -4.78111,-3.45191 -9.3464,-8.46094 z M 471.2854,435.03268 v -41.35076 h -37.38562 -37.38562 v 41.35076 41.35076 h 37.38562 37.38562 z"
     id="path15912"
     transform="scale(0.75)" />
  <path
     style="fill:#ffffff;fill-opacity:1;stroke-width:1.1329"
     d="m 577.45682,715.44727 c -15.89807,-16.32246 -27.4258,-23.62407 -45.62302,-28.89742 -9.5993,-2.78176 -10.66088,-2.84615 -46.92815,-2.84615 h -37.10668 l -8.0454,-4.02495 c -10.07025,-5.03794 -14.37882,-9.98896 -21.69252,-24.92706 -6.2514,-12.76837 -10.30751,-17.17853 -18.77279,-20.41145 -5.9968,-2.2902 -2.33648,-2.7654 -36.76103,4.77255 -18.91984,4.14288 -49.26372,4.97501 -64.70954,1.77457 -13.59581,-2.81712 -27.9955,-8.62152 -38.17197,-15.38684 -18.93468,-12.58775 -37.62209,-36.90615 -44.97653,-58.52911 -4.70236,-13.82548 -9.13049,-40.46944 -7.06857,-42.53136 0.38582,-0.38582 2.50556,1.10259 4.71054,3.30758 16.54845,16.54844 63.00342,30.98401 91.77558,28.51865 14.84046,-1.27162 34.80776,-7.58215 37.43344,-11.8306 1.05577,-1.70826 -2.55954,-3.03263 -12.41343,-4.5473 -19.5933,-3.01174 -32.79284,-9.37761 -43.29683,-20.88119 -9.27968,-10.16276 -13.51671,-20.08152 -15.6063,-36.53386 -0.95952,-7.55469 -2.48955,-16.24442 -3.40007,-19.31051 -3.68199,-12.39857 -14.71722,-23.74773 -26.3905,-27.14125 -5.45398,-1.58551 -9.12368,-1.70742 -25.67584,-0.85295 -31.69023,1.63593 -43.85935,1.12636 -54.52103,-2.28308 -11.5923,-3.70702 -20.66266,-9.58834 -29.6406,-19.2193 -8.47671,-9.09327 -14.64235,-19.35589 -24.116,-40.14073 -3.89314,-8.54143 -9.018757,-19.74596 -11.39025,-24.89895 -15.747183,-34.21694 -36.883617,-55.68022 -61.905963,-62.86323 -5.126161,-1.47154 -9.64444,-2.99967 -10.040621,-3.39585 -1.226224,-1.22623 6.468531,-5.26832 15.962221,-8.38504 7.761148,-2.54794 11.016232,-2.97353 22.657952,-2.96246 11.452761,0.0109 15.201279,0.49328 23.79085,3.06157 18.660981,5.57965 33.256061,14.64598 52.129101,32.38212 12.26081,11.52222 17.59571,14.71465 24.57958,14.70856 10.65731,-0.009 16.13087,-6.9122 16.16625,-20.38792 0.0193,-7.34402 -0.43873,-9.3302 -3.37619,-14.64031 -1.86919,-3.37897 -5.43774,-7.63382 -7.93011,-9.45525 -6.52594,-4.76914 -22.6726,-12.68456 -30.58824,-14.99496 -3.73856,-1.09121 -7.56209,-2.23264 -8.49673,-2.53652 -2.68874,-0.87417 10.82126,-6.82005 20.2754,-8.92339 6.47297,-1.4401 11.61102,-1.72452 22.11738,-1.2243 16.29431,0.77578 27.10193,3.54309 39.17585,10.03102 11.29245,6.06802 20.05947,13.30363 42.76703,35.29655 10.43674,10.10828 21.77981,20.72962 25.20682,23.60297 20.53066,17.21377 39.13968,22.92183 66.0038,20.24574 12.66305,-1.26142 17.83063,-2.5613 17.83063,-4.48517 0,-0.61965 -3.75822,-2.86304 -8.3516,-4.98531 -10.48687,-4.84523 -20.08511,-11.37479 -27.1451,-18.46645 -6.34727,-6.37576 -16.28298,-20.75499 -17.37266,-25.14222 -1.05957,-4.26605 -10.58461,-27.25237 -16.09429,-38.83957 -10.44373,-21.96387 -23.92768,-34.3632 -43.58283,-40.07711 -7.76878,-2.25844 -7.40755,-3.32578 2.65365,-7.84098 19.45742,-8.73196 49.20611,-8.4388 72.96124,0.71901 11.05407,4.26144 31.44969,17.79979 46.56122,30.90676 29.72868,25.78513 51.64391,33.83608 70.0007,25.716 6.52635,-2.88691 14.79391,-10.45794 18.72857,-17.15071 2.86712,-4.8769 3.03191,-5.94844 2.97186,-19.32442 -0.0459,-10.22429 -0.59979,-15.736 -1.99239,-19.82571 -2.41187,-7.08305 -11.06363,-18.70132 -20.28108,-27.23505 l -7.05048,-6.52751 17.526,0.6861 c 25.67168,1.00497 41.04934,5.01497 62.39876,16.27159 13.30101,7.01304 26.51482,17.1123 39.24257,29.99291 14.21919,14.38996 19.61745,21.81357 27.48165,37.79235 8.90696,18.09749 15.18568,36.88474 17.43397,52.16611 7.82009,53.15231 18.42186,76.649 39.37494,87.26674 9.02517,4.5734 11.62898,5.16249 26.3892,5.97034 l 13.53145,0.7406 1.43403,7.78814 c 4.62187,25.1014 17.38025,47.9602 32.62107,58.44615 2.63827,1.81518 18.11774,10.19542 34.39883,18.62278 55.6744,28.81796 70.32935,39.78913 88.31785,66.11762 7.8219,11.44836 13.65807,22.4276 11.40685,21.45903 -0.83382,-0.35875 -7.14122,-3.1955 -14.01642,-6.30389 -14.96021,-6.76374 -28.13365,-10.31031 -41.51756,-11.17742 -16.45184,-1.06586 -26.49468,1.236 -49.8318,11.42168 l -4.15473,1.81336 -2.8568,-4.87476 c -7.64263,-13.04115 -18.34678,-21.06969 -31.17396,-23.38171 -8.81477,-1.5888 -16.88329,-0.8453 -39.2284,3.61481 -14.93226,2.9805 -18.57372,3.31832 -30.02179,2.78517 -15.30612,-0.71283 -21.96627,-2.50968 -35.39523,-9.5493 -5.44778,-2.85579 -10.26409,-4.8333 -10.70291,-4.39448 -1.01011,1.0101 14.49432,16.72547 31.1303,31.55384 20.24694,18.04698 32.27107,34.55804 35.80914,49.17163 0.8881,3.66823 1.90503,11.69536 2.25986,17.8381 l 0.64512,11.16862 -8.27901,-7.86426 c -4.55345,-4.32535 -10.53362,-9.41089 -13.28926,-11.30122 -13.52242,-9.27621 -32.59266,-16.24049 -59.38934,-21.68846 -40.2726,-8.18771 -49.34854,-11.90093 -67.70545,-27.70024 -4.278,-3.68196 -8.02054,-6.45213 -8.31674,-6.15592 -0.91619,0.91619 2.67543,16.26758 4.7401,20.2602 3.07047,5.93762 14.73068,17.45859 27.09909,26.77547 14.2575,10.73991 31.04785,27.61215 38.92331,39.11317 11.94312,17.44128 19.02534,39.19752 20.20492,62.06858 0.41574,8.06103 0.25172,13.4064 -0.42421,13.82415 -0.60613,0.37461 -6.01052,-4.35836 -12.00973,-10.51773 z M 471.2854,435.03268 v -41.35076 h -37.38562 -37.38562 v 41.35076 41.35076 h 37.38562 37.38562 z"
     id="path35531"
     transform="scale(0.75)" />
  <path
     style="fill:#ffffff;fill-opacity:1;stroke-width:1.1329"
     d="m 395.38126,807.75599 v -41.35076 h 38.51852 38.51852 v 41.35076 41.35076 h -38.51852 -38.51852 z"
     id="path36875"
     transform="scale(0.75)" />
  <path
     style="fill:#ffffff;fill-opacity:1;stroke-width:1.1329"
     d="M 395.38126,63.442266 V 22.091503 h 38.51852 38.51852 v 41.350763 41.350764 h -38.51852 -38.51852 z"
     id="path36914"
     transform="scale(0.75)" />
</svg>
